<svg id="Capa_1" enable-background="new 0 0 512.103 512.103" height="512" fill="#2196f3" viewBox="0 0 512.103 512.103" width="512" xmlns="http://www.w3.org/2000/svg"><g><path d="m364.721 148.119c-5.889 3.105-13.154 1.978-17.798-2.827-8.35-8.628-21.797-18.911-38.423-18.911-11.338 0-22.764 4.629-33.018 13.389l-9.727 8.32c-5.625 4.805-13.887 4.805-19.512 0l-9.741-8.335c-10.239-8.745-21.665-13.374-33.003-13.374-16.626 0-30.073 10.283-38.423 18.911-4.658 4.805-11.938 5.933-17.798 2.827-12.729-6.753-24.536-6.519-27.612-2.197-3.281 4.702.864 18.164 14.839 28.55 4.966 3.691 7.148 10.063 5.508 16.025-2.695 9.814-4.014 18.281-4.014 25.884 0 23.76 10.166 41.572 29.385 51.504l9.097 4.717c5.464 2.827 8.643 8.716 8.027 14.839-.703 5.991-1.904 16.069-1.509 49.937.278 23.657 20.624 43.813 44.429 44.004 5.338 0 10.607-.809 15.533-2.075l-25.567-25.567c-2.812-2.812-4.395-6.621-4.395-10.605 0-1.758 2.109-55.356 3.691-73.066.542-6.05-2.622-11.792-8.057-14.604l-27.451-14.209c-7.354-3.809-10.225-12.847-6.416-20.215 3.809-7.339 12.803-10.254 20.215-6.416l27.451 14.209c16.289 8.423 25.767 25.664 24.141 43.901-1.23 13.799-2.754 49.761-3.34 64.424l14.767 14.764 14.766-14.766c-.571-14.399-2.109-50.581-3.34-64.424-1.626-18.252 7.852-35.479 24.155-43.916l27.48-14.224c7.383-3.823 16.421-.952 20.215 6.416 3.809 7.354.938 16.406-6.416 20.215l-27.495 14.238c-5.435 2.812-8.599 8.54-8.057 14.604 1.582 17.71 3.691 71.309 3.691 73.066 0 3.984-1.582 7.793-4.395 10.605l-25.585 25.585c4.937 1.295 10.234 2.146 15.566 2.056 23.789-.19 44.136-20.347 44.414-44.004.396-33.853-.806-43.931-1.318-48.237-.732-6.196 2.285-13.667 7.837-16.538l9.082-4.702c19.234-9.944 29.4-27.757 29.4-51.516 0-7.603-1.318-16.069-4.014-25.884-1.641-5.977.542-12.334 5.522-16.025 13.975-10.386 18.12-23.848 14.824-28.55-3.031-4.351-14.896-4.527-27.611 2.197z"/><path d="m429.438 82.626 8.833-5.303c4.351-2.607 7.075-7.236 7.266-12.305s-2.183-9.888-6.328-12.803c-31.055-21.943-67.295-37.5-107.71-46.23-26.31-5.669-53.614.777-75.499 17.315-21.899-16.524-49.307-22.998-75.483-17.271-40.4 8.73-76.611 24.272-107.622 46.187-4.146 2.915-6.519 7.734-6.328 12.803s2.915 9.697 7.266 12.305l8.833 5.303c-52.193 40.897-82.666 101.835-82.666 170.507 0 24.404 3.076 48.442 9.141 71.44 1.436 5.435 5.771 9.609 11.25 10.825 5.435 1.172 11.177-.732 14.78-5.039l5.156-6.196c16.992 56.836 55.697 108.725 113.412 152.626 5.01 3.809 11.851 4.058 17.168.688 5.303-3.384 7.925-9.741 6.562-15.879l-.82-3.662c26.851 22.075 53.613 39.488 72.861 48.717 2.051.981 4.277 1.479 6.489 1.479s4.438-.498 6.489-1.479c19.321-9.258 46.113-26.686 72.964-48.746l-.82 3.691c-1.362 6.138 1.26 12.495 6.562 15.879 5.332 3.398 12.173 3.149 17.168-.688 57.715-43.916 96.42-95.805 113.427-152.611l5.142 6.182c3.604 4.307 9.331 6.24 14.78 5.039 5.479-1.216 9.814-5.391 11.25-10.825 6.064-22.998 9.141-47.036 9.141-71.44.001-68.673-30.472-129.611-82.664-170.509zm-23.438 133.755c0 34.702-16.626 63.179-45.615 78.164l-.073.044c.527 7.954.952 20.654.688 43.14-.483 39.595-34.438 73.315-74.165 73.652-.278 0-.542 0-.82 0-10.752 0-20.845-1.714-30.015-5.098v-.015c-9.434 3.486-19.995 4.907-30.82 5.112-39.741-.337-73.696-34.058-74.18-73.652-.264-22.778.161-35.522.674-43.154l-.073-.044c-28.975-14.971-45.601-43.447-45.601-78.149 0-7.646.908-15.703 2.783-24.419-20.273-19.307-26.323-45.19-13.696-63.237 11.089-15.791 33.223-20.068 56.206-11.616 31.963-27.29 73.33-26.924 104.707-.161 31.436-26.792 72.773-27.129 104.707.161 22.969-8.452 45.117-4.204 56.206 11.616 12.627 18.047 6.577 43.945-13.696 63.237 1.875 8.716 2.783 16.772 2.783 24.419z"/></g></svg>
