<svg id="Capa_1" enable-background="new 0 0 512.02 512.02" height="512" viewBox="0 0 512.02 512.02" width="512" fill="#fff" xmlns="http://www.w3.org/2000/svg"><g><path d="m21.215 127.298 21.212-21.213 129.16 128.279 63.64-63.64-129.159-128.279 21.212-21.213-21.214-21.212-106.066 106.065z"/><path d="m455.548 92.02-35.548-35.548c-44.696-44.695-113.727-54.716-170.26-26.439l-28.94 14.46 29.727 12.74c92.206 39.505 164.755 112.051 204.26 204.26l12.74 29.727 14.46-28.94c28.277-56.536 18.255-125.564-26.439-170.26z"/><path d="m479.749 478.886 2.238-4.475c28.277-56.534 17.236-124.545-27.458-169.239l-49.594-49.594-21.213 21.213 23.035 23.036c27.438 27.438 43.184 65.431 43.173 104.242v44.996h-44.995c-38.811.009-76.805-15.734-104.244-43.173l-23.036-23.036-21.213 21.213 49.594 49.594c44.694 44.696 112.705 55.737 169.241 27.46z"/><path d="m63.64 512.02 317.122-317.122c-9.194-11.876-18.862-23.392-29.555-34.085s-22.209-20.363-34.085-29.555l-317.122 317.123z"/><path d="m448.38 0-22.326 22.326c5.173 4.124 10.397 8.17 15.159 12.933l35.548 35.548c4.763 4.763 8.809 9.987 12.933 15.159l22.326-22.326z"/><path d="m321.903 384.681c21.855 21.855 52.123 34.387 83.031 34.387h14.998v-14.998c0-30.908-12.534-61.174-34.389-83.029l-44.247-44.247-63.64 63.64z"/></g></svg>
