<svg height="512pt" viewBox="0 0 512.0004 512" fill="#2196f3" width="512pt" xmlns="http://www.w3.org/2000/svg"><path d="m420.9375 345.949219v45.992187h45.992188c5.136718 0 10.152343.53125 15 1.519532v-47.511719c.601562-19.496094.902343-37.296875 21.59375-47.492188 6.789062-3.394531 9.550781-11.003906 8.101562-16.796875-1.800781-6.902344-7.796875-11.699218-14.699219-11.699218-41.851562 0-75.988281 34.804687-75.988281 75.988281zm0 0"/><path d="m276.058594 318.015625c12.242187-30.171875 24.898437-61.355469 24.898437-123.042969v-39.066406c-18.21875 23.855469-39.632812 43.902344-59.992187 51.039062v11.8125l25.601562 25.601563c5.859375 5.855469 5.859375 15.347656 0 21.207031s-15.351562 5.859375-21.207031 0l-19.390625-19.390625-19.394531 19.390625c-5.859375 5.859375-15.347657 5.859375-21.207031 0-5.859376-5.855468-5.859376-15.347656 0-21.207031l25.601562-25.601563v-11.8125c-20.359375-7.136718-41.773438-27.183593-59.992188-51.039062v39.066406c0 61.6875 12.65625 92.871094 24.898438 123.042969 10.339844 25.453125 20.097656 51.503906 20.097656 88.925781 0 3.019532 0 48.011719 0 44.992188 0 33.085937 26.902344 59.992187 59.988282 59.992187h23.40625c-14.390626-15.957031-23.40625-36.859375-23.40625-59.992187 0-3.019532 0-48.011719 0-44.992188 0-37.421875 9.757812-63.472656 20.097656-88.925781zm0 0"/><path d="m44.992188 511.925781h144.386718c-14.386718-15.957031-23.402344-36.859375-23.402344-59.992187v-29.996094h-120.984374c-24.847657 0-44.992188 20.144531-44.992188 44.996094 0 24.847656 20.144531 44.992187 44.992188 44.992187zm0 0"/><path d="m466.929688 421.9375h-180.972657v29.996094c0 33.085937 26.90625 59.992187 59.992188 59.992187h120.980469c24.851562 0 44.996093-20.144531 44.996093-44.992187 0-24.851563-20.144531-44.996094-44.996093-44.996094zm0 0"/><path d="m426.328125 108.632812c-.425781 1.683594-11 41.34375-67.050781 41.34375-11.351563 0-20.410156-1.898437-28.324219-4.503906v44.242188c5.558594 6.109375 22.144531 20.253906 57.5 20.253906 35.101563 0 51.707031-13.933594 57.378906-20.117188 3.019531-8.457031 5.101563-16.792968 5.101563-24.875 0-22.871093-8.808594-44.132812-22.835938-63.414062zm0 0"/><path d="m418.90625 236.363281c-8.976562 2.070313-18.808594 3.601563-30.453125 3.601563-26.386719 0-45.277344-6.582032-58.738281-14.164063-3.613282 48.089844-15.269532 78.390625-25.859375 104.492188-9.609375 23.652343-17.898438 45.085937-17.898438 76.648437 0-22.996094 39.355469-66.824218 74.097657-103.734375 21.609374-22.964843 42.457031-45.304687 58.851562-66.84375zm0 0"/><path d="m330.953125 112.710938c5.691406 3.894531 14.433594 7.269531 28.324219 7.269531 31.359375 0 37.449218-17.03125 38.050781-18.980469l6.578125-26.289062c-18.320312-16.742188-40.316406-31.292969-63.476562-42.914063 3.40625 8.402344 5.519531 17.6875 5.519531 28.195313 0 11.542968-5.75 28.902343-14.996094 47.703124zm0 0"/><path d="m32.046875 236.367188c16.390625 21.527343 38.230469 43.855468 59.832031 66.8125 34.726563 36.921874 74.097656 80.75 74.097656 103.761718 0-31.5625-8.289062-52.996094-17.898437-76.648437-10.589844-26.101563-22.246094-56.402344-25.859375-104.492188-13.460938 7.582031-33.351562 14.164063-59.738281 14.164063-11.632813 0-21.460938-1.53125-30.433594-3.597656zm0 0"/><path d="m62.480469 209.96875c35.355469 0 52.941406-14.140625 58.5-20.246094v-44.25c-7.914063 2.605469-16.972657 4.503906-28.324219 4.503906-56.050781 0-67.625-39.660156-68.050781-41.34375l-1.769531-7.074218c-14.027344 19.285156-22.835938 40.542968-22.835938 63.417968 0 8.101563 2.089844 16.460938 5.128906 24.941407 5.558594 6.042969 22.15625 20.050781 57.351563 20.050781zm0 0"/><path d="m53.691406 101.335938c.515625 1.613281 7.605469 18.644531 38.964844 18.644531 13.894531 0 22.636719-3.378907 28.324219-7.273438v-5.011719c-9.246094-18.800781-14.996094-36.160156-14.996094-47.703124 0-10.507813 2.113281-19.792969 5.519531-28.195313-23.160156 11.621094-46.15625 26.171875-64.476562 42.914063zm0 0"/><path d="m225.96875 179.972656c30.492188 0 89.984375-91.640625 89.984375-119.980468 0-49.5625-75.179687-59.992188-89.984375-59.992188-14.808594 0-89.988281 10.429688-89.988281 59.992188 0 28.339843 59.492187 119.980468 89.988281 119.980468zm29.992188-119.980468c8.285156 0 15 6.714843 15 14.996093 0 8.285157-6.714844 15-15 15-8.28125 0-14.996094-6.714843-14.996094-15 0-8.28125 6.714844-14.996093 14.996094-14.996093zm-74.988282 14.996093c0-8.28125 6.714844-14.996093 15-14.996093 8.28125 0 14.996094 6.714843 14.996094 14.996093 0 8.285157-6.714844 15-14.996094 15-8.285156 0-15-6.71875-15-15zm0 0"/></svg>
