<svg id="Capa_1" enable-background="new 0 0 512 512" height="512" fill="#2196f3" viewBox="0 0 512 512" width="512" xmlns="http://www.w3.org/2000/svg"><g><path d="m376 242c-19.603 0-37.873 7.572-51.506 20.478l-19.113-23.226c18.92-17.216 43.883-27.252 70.619-27.252 15.34 0 29.93 3.31 43.08 9.25 1.25-9.51 1.92-18.46 1.92-26.25 0-69.846-53.316-127.47-121.387-134.317-6.703-34.528-37.154-60.683-73.613-60.683-42.609 0-69.86 13.208-82.052 16.54-26.796 8.931-54.703 13.46-82.948 13.46v30c31.475 0 62.574-5.047 92.435-15 12.738-3.52 35.762-15 72.565-15 19.96 0 36.917 13.067 42.79 31.092-66.343 8.478-117.79 65.297-117.79 133.908 0 7.79.67 16.74 1.92 26.25 13.15-5.94 27.74-9.25 43.08-9.25 26.737 0 51.702 10.037 70.622 27.254-25.141 30.55-17.069 20.742-19.114 23.226-13.633-12.907-31.903-20.48-51.508-20.48-41.239 0-75 33.547-75 75 0 36.61 26.37 67.18 61.11 73.71 7.96 50.37 64.49 121.29 103.89 121.29 38.85 0 95.81-70.16 103.89-121.29 34.74-6.53 61.11-37.1 61.11-73.71 0-41.402-33.71-75-75-75z"/></g></svg>
